<svg width="448" height="338" viewBox="0 0 448 338" fill="none" xmlns="http://www.w3.org/2000/svg">
<path d="M67 260.5C2.45269 210.139 42.5 80 70.5 61.5C110.894 34.8109 146.111 55.2399 156.5 65.5C164.724 74.026 190.634 107.474 240.5 121C302.832 137.908 325.642 100.232 374.108 114.056C426.5 129 430 176.5 417.5 215.5C413.173 229 377.5 298 295.5 280.5C213.5 263 112.5 296 67 260.5Z" fill="#F4F8F8" fill-opacity="0.5"/>
<path d="M92.3672 248V224.888H22.1752V193.002L86.8032 98.2H129.603V191.29H151.645V224.888H129.603V248H92.3672ZM61.1232 191.29H92.3672V145.494L61.1232 191.29Z" fill="#E2EAEA"/>
<path d="M366.367 248V224.888H296.175V193.002L360.803 98.2H403.603V191.29H425.645V224.888H403.603V248H366.367ZM335.123 191.29H366.367V145.494L335.123 191.29Z" fill="#E2EAEA"/>
<path d="M66.3623 26C67.4669 26 68.3623 26.8954 68.3623 28V33.3633H73.7256C74.8302 33.3633 75.7256 34.2587 75.7256 35.3633C75.7254 36.4677 74.83 37.3633 73.7256 37.3633H68.3623V42.7256L68.3516 42.9307C68.2489 43.939 67.3977 44.7256 66.3623 44.7256C65.327 44.7255 64.4757 43.9389 64.373 42.9307L64.3623 42.7256V37.3633H59L58.7949 37.3525C57.7868 37.2499 57.0002 36.3984 57 35.3633C57 34.328 57.7867 33.4767 58.7949 33.374L59 33.3633H64.3623V28C64.3623 26.8955 65.2578 26.0001 66.3623 26Z" fill="#E2EAEA"/>
<path d="M320.362 45C321.467 45 322.362 45.8954 322.362 47V52.3633H327.726C328.83 52.3633 329.726 53.2587 329.726 54.3633C329.725 55.4677 328.83 56.3633 327.726 56.3633H322.362V61.7256L322.352 61.9307C322.249 62.939 321.398 63.7256 320.362 63.7256C319.327 63.7255 318.476 62.9389 318.373 61.9307L318.362 61.7256V56.3633H313L312.795 56.3525C311.787 56.2499 311 55.3984 311 54.3633C311 53.328 311.787 52.4767 312.795 52.374L313 52.3633H318.362V47C318.362 45.8955 319.258 45.0001 320.362 45Z" fill="#E2EAEA"/>
<path d="M160.362 293C161.467 293 162.362 293.895 162.362 295V300.363H167.726C168.83 300.363 169.726 301.259 169.726 302.363C169.725 303.468 168.83 304.363 167.726 304.363H162.362V309.726L162.352 309.931C162.249 310.939 161.398 311.726 160.362 311.726C159.327 311.725 158.476 310.939 158.373 309.931L158.362 309.726V304.363H153L152.795 304.353C151.787 304.25 151 303.398 151 302.363C151 301.328 151.787 300.477 152.795 300.374L153 300.363H158.362V295C158.362 293.895 159.258 293 160.362 293Z" fill="#E2EAEA"/>
<circle cx="224.451" cy="173.451" r="76" transform="rotate(-45 224.451 173.451)" stroke="#D3DADA" stroke-width="24"/>
<path d="M289.015 261.622C287.843 260.45 287.843 258.551 289.015 257.379L310.228 236.166C311.399 234.995 313.299 234.995 314.47 236.166L361.493 283.189C368.522 290.218 368.522 301.615 361.493 308.645C354.463 315.674 343.067 315.674 336.037 308.645L289.015 261.622Z" fill="#D3DADA"/>
<rect x="279.667" y="238.803" width="18" height="20" transform="rotate(-45 279.667 238.803)" fill="#D3DADA"/>
<circle cx="184.5" cy="64.5" r="3.5" fill="#E2EAEA"/>
<circle cx="303.5" cy="302.5" r="3.5" fill="#E2EAEA"/>
<circle cx="71.5" cy="251.5" r="3.5" fill="#E2EAEA"/>
</svg>
