<svg width="24" height="24" viewBox="0 0 24 24" fill="none" xmlns="http://www.w3.org/2000/svg">
<path fill-rule="evenodd" clip-rule="evenodd" d="M10.5 6C9.83696 6 9.20107 6.26339 8.73223 6.73223C8.26339 7.20107 8 7.83696 8 8.5V15C8 15.5253 8.10346 16.0454 8.30448 16.5307C8.5055 17.016 8.80014 17.457 9.17157 17.8284C9.54301 18.1999 9.98396 18.4945 10.4693 18.6955C10.9546 18.8965 11.4747 19 12 19C12.5253 19 13.0454 18.8965 13.5307 18.6955C14.016 18.4945 14.457 18.1999 14.8284 17.8284C15.1999 17.457 15.4945 17.016 15.6955 16.5307C15.8965 16.0454 16 15.5253 16 15V10H17V15C17 15.6566 16.8707 16.3068 16.6194 16.9134C16.3681 17.52 15.9998 18.0712 15.5355 18.5355C15.0712 18.9998 14.52 19.3681 13.9134 19.6194C13.3068 19.8707 12.6566 20 12 20C11.3434 20 10.6932 19.8707 10.0866 19.6194C9.47995 19.3681 8.92876 18.9998 8.46447 18.5355C8.00017 18.0712 7.63188 17.52 7.3806 16.9134C7.12933 16.3068 7 15.6566 7 15V8.5C7 7.57174 7.36875 6.6815 8.02513 6.02513C8.6815 5.36875 9.57174 5 10.5 5C11.4283 5 12.3185 5.36875 12.9749 6.02513C13.6313 6.6815 14 7.57174 14 8.5V15C14 15.5304 13.7893 16.0391 13.4142 16.4142C13.0391 16.7893 12.5304 17 12 17C11.4696 17 10.9609 16.7893 10.5858 16.4142C10.2107 16.0391 10 15.5304 10 15V10H11V15C11 15.2652 11.1054 15.5196 11.2929 15.7071C11.4804 15.8946 11.7348 16 12 16C12.2652 16 12.5196 15.8946 12.7071 15.7071C12.8946 15.5196 13 15.2652 13 15V8.5C13 7.83696 12.7366 7.20107 12.2678 6.73223C11.7989 6.26339 11.163 6 10.5 6Z" fill="black"/>
</svg>
