<svg width="24" height="24" viewBox="0 0 24 24" fill="none" xmlns="http://www.w3.org/2000/svg">
<path fill-rule="evenodd" clip-rule="evenodd" d="M9.5 9C8.57174 9 7.6815 9.36875 7.02513 10.0251C6.36875 10.6815 6 11.5717 6 12.5C6 13.4283 6.36875 14.3185 7.02513 14.9749C7.6815 15.6313 8.57174 16 9.5 16H11V17H9.5C8.30653 17 7.16193 16.5259 6.31802 15.682C5.47411 14.8381 5 13.6935 5 12.5C5 11.3065 5.47411 10.1619 6.31802 9.31802C7.16193 8.47411 8.30653 8 9.5 8H11V9H9.5ZM15.5 9C16.4283 9 17.3185 9.36875 17.9749 10.0251C18.6313 10.6815 19 11.5717 19 12.5C19 13.4283 18.6313 14.3185 17.9749 14.9749C17.3185 15.6313 16.4283 16 15.5 16H14V17H15.5C16.6935 17 17.8381 16.5259 18.682 15.682C19.5259 14.8381 20 13.6935 20 12.5C20 11.3065 19.5259 10.1619 18.682 9.31802C17.8381 8.47411 16.6935 8 15.5 8H14V9H15.5ZM9.00004 13H16V12H9.00004V13Z" fill="#161B1B"/>
</svg>
