<svg width="24" height="24" viewBox="0 0 24 24" fill="none" xmlns="http://www.w3.org/2000/svg">
<path fill-rule="evenodd" clip-rule="evenodd" d="M6 10V8H4V7H6V5H7V7H9V8H7V10H6ZM13 7H13.5H18.5H19V7.5V10H18V8H14V10.5V11H13.5H10V13.5V14H9.5H6V17H10V18H5.5H5V17.5V13.5V13H5.5H9V10.5V10H9.5H13V7.5V7ZM18.5 13C18.7761 13 19 12.7761 19 12.5C19 12.2239 18.7761 12 18.5 12C18.2239 12 18 12.2239 18 12.5C18 12.7761 18.2239 13 18.5 13ZM18.5 14C19.3284 14 20 13.3284 20 12.5C20 11.6716 19.3284 11 18.5 11C17.6716 11 17 11.6716 17 12.5C17 12.5627 17.0039 12.6246 17.0113 12.6853L16.7764 12.8028L15.2764 13.5528L13.7764 14.3028L13.5413 14.4203C13.2715 14.1601 12.9045 14 12.5 14C11.6716 14 11 14.6716 11 15.5C11 16.3284 11.6716 17 12.5 17C12.9045 17 13.2715 16.8399 13.5413 16.5797L13.7764 16.6972L15.2764 17.4472L16.7764 18.1972L17.0113 18.3147C17.0039 18.3754 17 18.4373 17 18.5C17 19.3284 17.6716 20 18.5 20C19.3284 20 20 19.3284 20 18.5C20 17.6716 19.3284 17 18.5 17C18.0955 17 17.7285 17.1601 17.4587 17.4203L17.2236 17.3028L15.7236 16.5528L14.2236 15.8028L13.9887 15.6853C13.9961 15.6246 14 15.5627 14 15.5C14 15.4373 13.9961 15.3754 13.9887 15.3147L14.2236 15.1972L15.7236 14.4472L17.2236 13.6972L17.4587 13.5797C17.7285 13.8399 18.0955 14 18.5 14ZM13 15.5C13 15.7761 12.7761 16 12.5 16C12.2239 16 12 15.7761 12 15.5C12 15.2239 12.2239 15 12.5 15C12.7761 15 13 15.2239 13 15.5ZM19 18.5C19 18.7761 18.7761 19 18.5 19C18.2239 19 18 18.7761 18 18.5C18 18.2239 18.2239 18 18.5 18C18.7761 18 19 18.2239 19 18.5Z" fill="#161B1B"/>
</svg>
