<svg width="24" height="24" viewBox="0 0 24 24" fill="none" xmlns="http://www.w3.org/2000/svg">
<path d="M15.4348 12.176C16.0748 12.3787 16.5761 12.72 16.9388 13.2C17.3015 13.6693 17.4828 14.2507 17.4828 14.944C17.4828 15.9253 17.0988 16.6827 16.3308 17.216C15.5735 17.7387 14.4641 18 13.0028 18H7.21081V6.8H12.6828C14.0481 6.8 15.0935 7.06133 15.8188 7.584C16.5548 8.10667 16.9228 8.816 16.9228 9.712C16.9228 10.256 16.7895 10.7413 16.5228 11.168C16.2668 11.5947 15.9041 11.9307 15.4348 12.176ZM9.78681 8.752V11.392H12.3628C13.0028 11.392 13.4881 11.28 13.8188 11.056C14.1495 10.832 14.3148 10.5013 14.3148 10.064C14.3148 9.62667 14.1495 9.30133 13.8188 9.088C13.4881 8.864 13.0028 8.752 12.3628 8.752H9.78681ZM12.8108 16.048C13.4935 16.048 14.0055 15.936 14.3468 15.712C14.6988 15.488 14.8748 15.1413 14.8748 14.672C14.8748 13.744 14.1868 13.28 12.8108 13.28H9.78681V16.048H12.8108Z" fill="#161B1B"/>
</svg>
