<svg width="24" height="24" viewBox="0 0 24 24" fill="none" xmlns="http://www.w3.org/2000/svg">
<path fill-rule="evenodd" clip-rule="evenodd" d="M11 7H17C17.5523 7 18 7.44772 18 8V14C18 14.5523 17.5523 15 17 15H11C10.4477 15 10 14.5523 10 14V8C10 7.44772 10.4477 7 11 7ZM9 8C9 6.89543 9.89543 6 11 6H17C18.1046 6 19 6.89543 19 8V14C19 15.1046 18.1046 16 17 16H15V17.5C15 18.3284 14.3284 19 13.5 19H7.5C6.67157 19 6 18.3284 6 17.5V11.5C6 10.6716 6.67157 10 7.5 10H9V8ZM9 11H7.5C7.22386 11 7 11.2239 7 11.5V17.5C7 17.7761 7.22386 18 7.5 18H13.5C13.7761 18 14 17.7761 14 17.5V16H11C9.89543 16 9 15.1046 9 14V11Z" fill="#161B1B"/>
</svg>
