<svg width="24" height="24" viewBox="0 0 24 24" fill="none" xmlns="http://www.w3.org/2000/svg">
<path fill-rule="evenodd" clip-rule="evenodd" d="M10.3201 7.11591L7.32009 4.61591L6.67991 5.38413L8.61898 7.00002H3V8.00002H8.61898L6.67991 9.61591L7.32009 10.3841L10.3201 7.88413L10.781 7.50002L10.3201 7.11591ZM14 7.00002H14.5H19.5H20V7.50002V10H19V8.00002H15V10.5V11H14.5H11V13.5V14H10.5H7V17H11V18H6.5H6V17.5V13.5V13H6.5H10V10.5V10H10.5H14V7.50002V7.00002ZM19.5 13C19.7761 13 20 12.7762 20 12.5C20 12.2239 19.7761 12 19.5 12C19.2239 12 19 12.2239 19 12.5C19 12.7762 19.2239 13 19.5 13ZM19.5 14C20.3284 14 21 13.3284 21 12.5C21 11.6716 20.3284 11 19.5 11C18.6716 11 18 11.6716 18 12.5C18 12.5628 18.0039 12.6246 18.0113 12.6853L17.7764 12.8028L16.2764 13.5528L14.7764 14.3028L14.5413 14.4203C14.2715 14.1601 13.9045 14 13.5 14C12.6716 14 12 14.6716 12 15.5C12 16.3284 12.6716 17 13.5 17C13.9045 17 14.2715 16.8399 14.5413 16.5797L14.7764 16.6972L16.2764 17.4472L17.7764 18.1972L18.0113 18.3147C18.0039 18.3754 18 18.4373 18 18.5C18 19.3284 18.6716 20 19.5 20C20.3284 20 21 19.3284 21 18.5C21 17.6716 20.3284 17 19.5 17C19.0955 17 18.7285 17.1601 18.4587 17.4203L18.2236 17.3028L16.7236 16.5528L15.2236 15.8028L14.9887 15.6853C14.9961 15.6246 15 15.5628 15 15.5C15 15.4373 14.9961 15.3754 14.9887 15.3147L15.2236 15.1972L16.7236 14.4472L18.2236 13.6972L18.4587 13.5797C18.7285 13.8399 19.0955 14 19.5 14ZM14 15.5C14 15.7762 13.7761 16 13.5 16C13.2239 16 13 15.7762 13 15.5C13 15.2239 13.2239 15 13.5 15C13.7761 15 14 15.2239 14 15.5ZM20 18.5C20 18.7762 19.7761 19 19.5 19C19.2239 19 19 18.7762 19 18.5C19 18.2239 19.2239 18 19.5 18C19.7761 18 20 18.2239 20 18.5Z" fill="#161B1B"/>
</svg>
