<svg width="24" height="24" viewBox="0 0 24 24" fill="none" xmlns="http://www.w3.org/2000/svg">
<path fill-rule="evenodd" clip-rule="evenodd" d="M5.592 7.20303V9.304H6.116V6.504H5.64809L5.644 6.5C5.588 6.564 5.52133 6.628 5.444 6.692C5.36933 6.75333 5.29333 6.804 5.216 6.844C5.13867 6.88133 5.06667 6.89733 5 6.892V7.388C5.12533 7.39867 5.244 7.38 5.356 7.332C5.43665 7.29824 5.51531 7.25525 5.592 7.20303ZM20 7.5H8V8.5H20V7.5ZM20 11.5H8V12.5H20V11.5ZM8 15.5H20V16.5H8V15.5ZM5.108 13.352V12.948C5.108 12.8707 5.132 12.7853 5.18 12.692C5.228 12.5987 5.29467 12.5053 5.38 12.412C5.46533 12.3187 5.56533 12.232 5.68 12.152L6.104 11.848C6.16267 11.808 6.21733 11.7627 6.268 11.712C6.32133 11.6613 6.364 11.6067 6.396 11.548C6.43067 11.4867 6.448 11.428 6.448 11.372C6.448 11.3027 6.43067 11.24 6.396 11.184C6.364 11.128 6.316 11.084 6.252 11.052C6.188 11.02 6.10933 11.004 6.016 11.004C5.936 11.004 5.864 11.02 5.8 11.052C5.73867 11.084 5.688 11.1267 5.648 11.18C5.608 11.2333 5.58 11.2907 5.564 11.352L5 11.256C5.02667 11.1227 5.084 10.9987 5.172 10.884C5.26 10.7693 5.37467 10.6773 5.516 10.608C5.66 10.536 5.82267 10.5 6.004 10.5C6.212 10.5 6.39067 10.5373 6.54 10.612C6.68933 10.6867 6.804 10.7893 6.884 10.92C6.96667 11.048 7.008 11.1973 7.008 11.368C7.008 11.5413 6.96 11.696 6.864 11.832C6.77067 11.9653 6.64133 12.0907 6.476 12.208L6.096 12.484C6.01867 12.5373 5.952 12.596 5.896 12.66C5.84 12.724 5.79733 12.7947 5.768 12.872H7.044V13.352H5.108ZM5.52 17.324C5.65333 17.372 5.80267 17.396 5.968 17.396C6.136 17.396 6.292 17.364 6.436 17.3C6.58 17.236 6.696 17.144 6.784 17.024C6.872 16.9013 6.916 16.756 6.916 16.588C6.916 16.4573 6.88533 16.3413 6.824 16.24C6.76267 16.136 6.67733 16.048 6.568 15.976C6.52034 15.9426 6.46923 15.913 6.41465 15.8871C6.44985 15.8703 6.48364 15.8519 6.516 15.832C6.62267 15.768 6.70667 15.6893 6.768 15.596C6.82933 15.5027 6.86 15.392 6.86 15.264C6.86 15.1147 6.82 14.9827 6.74 14.868C6.66 14.7533 6.55067 14.664 6.412 14.6C6.27333 14.5333 6.11733 14.5 5.944 14.5C5.808 14.5 5.676 14.524 5.548 14.572C5.42 14.6173 5.30933 14.6853 5.216 14.776C5.12533 14.864 5.06133 14.9733 5.024 15.104L5.52 15.252C5.54667 15.18 5.58133 15.1253 5.624 15.088C5.66933 15.048 5.71867 15.02 5.772 15.004C5.82533 14.9853 5.87733 14.976 5.928 14.976C6.00533 14.976 6.07333 14.9907 6.132 15.02C6.19067 15.0493 6.236 15.0893 6.268 15.14C6.3 15.1907 6.316 15.248 6.316 15.312C6.316 15.424 6.27067 15.512 6.18 15.576C6.08933 15.64 5.95067 15.672 5.764 15.672H5.596V15.748V16.02V16.12H5.764C5.908 16.12 6.024 16.1373 6.112 16.172C6.20267 16.204 6.268 16.2507 6.308 16.312C6.348 16.3733 6.368 16.444 6.368 16.524C6.368 16.6413 6.328 16.7373 6.248 16.812C6.17067 16.884 6.06533 16.92 5.932 16.92C5.84133 16.92 5.768 16.904 5.712 16.872C5.656 16.84 5.612 16.8013 5.58 16.756C5.548 16.708 5.52267 16.668 5.504 16.636L5 16.784C5.03467 16.9093 5.096 17.0187 5.184 17.112C5.27467 17.2027 5.38667 17.2733 5.52 17.324Z" fill="black"/>
</svg>
