<svg width="24" height="24" viewBox="0 0 24 24" fill="none" xmlns="http://www.w3.org/2000/svg">
<path fill-rule="evenodd" clip-rule="evenodd" d="M16.9077 9.37654L13.9047 12L14.5627 12.7531L18.569 9.25309L19 8.87655L18.569 8.5L14.5627 5L13.9047 5.75309L16.9077 8.37654H10.0084C8.68022 8.37655 7.40644 8.90333 6.46728 9.84101C5.52812 10.7787 5.0005 12.0505 5.0005 13.3765C5.0005 14.7026 5.52812 15.9744 6.46728 16.9121C7.40644 17.8498 8.68022 18.3765 10.0084 18.3765H17.0179V17.3765H10.0084C8.94493 17.3765 7.92534 16.9547 7.17383 16.2044C6.42238 15.4541 6.0005 14.4369 6.0005 13.3765C6.0005 12.3162 6.42238 11.2989 7.17383 10.5487C7.92533 9.79836 8.94493 9.37654 10.0084 9.37654H16.9077Z" fill="black"/>
</svg>
