<svg width="24" height="24" viewBox="0 0 24 24" fill="none" xmlns="http://www.w3.org/2000/svg">
<path fill-rule="evenodd" clip-rule="evenodd" d="M12.2757 13H9.00004V12H11.2777L8.44738 9.16203C7.91567 9.32972 7.42664 9.62361 7.02513 10.0251C6.36875 10.6815 6 11.5717 6 12.5C6 13.4283 6.36875 14.3185 7.02513 14.9749C7.6815 15.6313 8.57174 16 9.5 16H11V17H9.5C8.30653 17 7.16193 16.5259 6.31802 15.682C5.47411 14.8381 5 13.6935 5 12.5C5 11.3065 5.47411 10.1619 6.31802 9.31802C6.71291 8.92313 7.17363 8.60922 7.67438 8.38696L5.64597 6.35308L6.35403 5.64692L8.7616 8.06098C8.76224 8.06087 8.76288 8.06076 8.76352 8.06066L9.67236 8.9695C9.67121 8.96992 9.67007 8.97034 9.66892 8.97075L12.69 12H12.7029L13.4204 12.7175L13.7029 13H13.6919L16.5411 15.8416C16.542 15.8413 16.5428 15.841 16.5436 15.8408L17.3189 16.616C17.3186 16.6162 17.3183 16.6163 17.318 16.6164L19.3531 18.646L18.6469 19.354L16.2272 16.9409C15.9883 16.98 15.7452 17 15.5 17H14V16H15.2838L12.2757 13ZM14.1275 12.0104L14.1171 12H16V13H15.1171L14.1275 12.0104ZM17.4937 15.3767L18.2098 16.0927C18.3756 15.9676 18.5334 15.8305 18.682 15.682C19.5259 14.8381 20 13.6935 20 12.5C20 11.3065 19.5259 10.1619 18.682 9.31802C17.8381 8.47411 16.6935 8 15.5 8H14V9H15.5C16.4283 9 17.3185 9.36875 17.9749 10.0251C18.6313 10.6815 19 11.5717 19 12.5C19 13.4283 18.6313 14.3185 17.9749 14.9749C17.8258 15.124 17.6646 15.2582 17.4937 15.3767Z" fill="#161B1B"/>
</svg>
