<svg width="24" height="24" viewBox="0 0 24 24" fill="none" xmlns="http://www.w3.org/2000/svg">
  <path d="M9.90738 18V16.144L9.85938 15.84V12.736C9.85938 12.0213 9.65671 11.472 9.25138 11.088C8.85671 10.704 8.26471 10.512 7.47538 10.512C6.93138 10.512 6.41404 10.6027 5.92337 10.784C5.43271 10.9653 5.01671 11.2053 4.67537 11.504L4.16337 10.656C4.59004 10.2933 5.10204 10.016 5.69937 9.824C6.29671 9.62133 6.92604 9.52 7.58738 9.52C8.67538 9.52 9.51271 9.792 10.0994 10.336C10.6967 10.8693 10.9954 11.6853 10.9954 12.784V18H9.90738ZM7.01137 18.08C6.38204 18.08 5.83271 17.9787 5.36337 17.776C4.90471 17.5627 4.55271 17.2747 4.30737 16.912C4.06204 16.5387 3.93937 16.112 3.93937 15.632C3.93937 15.1947 4.04071 14.8 4.24337 14.448C4.45671 14.0853 4.79804 13.7973 5.26737 13.584C5.74738 13.36 6.38738 13.248 7.18738 13.248H10.0834V14.096H7.21938C6.40871 14.096 5.84338 14.24 5.52338 14.528C5.21404 14.816 5.05937 15.1733 5.05937 15.6C5.05937 16.08 5.24604 16.464 5.61937 16.752C5.99271 17.04 6.51537 17.184 7.18738 17.184C7.82738 17.184 8.37671 17.04 8.83538 16.752C9.30471 16.4533 9.64604 16.0267 9.85938 15.472L10.1154 16.256C9.90204 16.8107 9.52871 17.2533 8.99538 17.584C8.47271 17.9147 7.81138 18.08 7.01137 18.08ZM16.0169 18.08C15.2809 18.08 14.6195 17.9147 14.0329 17.584C13.4462 17.2427 12.9822 16.752 12.6409 16.112C12.2995 15.472 12.1289 14.6987 12.1289 13.792C12.1289 12.8747 12.2995 12.1013 12.6409 11.472C12.9929 10.832 13.4622 10.3467 14.0489 10.016C14.6355 9.68533 15.2915 9.52 16.0169 9.52C16.8169 9.52 17.5315 9.70133 18.1609 10.064C18.8009 10.416 19.3022 10.912 19.6649 11.552C20.0275 12.192 20.2089 12.9387 20.2089 13.792C20.2089 14.6347 20.0275 15.3813 19.6649 16.032C19.3022 16.672 18.8009 17.1733 18.1609 17.536C17.5315 17.8987 16.8169 18.08 16.0169 18.08ZM11.6809 18V6.128H12.8169V12.08L12.6569 13.776L12.7689 15.472V18H11.6809ZM15.9369 17.072C16.5342 17.072 17.0675 16.9387 17.5369 16.672C18.0062 16.3947 18.3795 16.0107 18.6569 15.52C18.9342 15.0187 19.0729 14.4427 19.0729 13.792C19.0729 13.1307 18.9342 12.5547 18.6569 12.064C18.3795 11.5733 18.0062 11.1947 17.5369 10.928C17.0675 10.6507 16.5342 10.512 15.9369 10.512C15.3395 10.512 14.8009 10.6507 14.3209 10.928C13.8515 11.1947 13.4782 11.5733 13.2009 12.064C12.9342 12.5547 12.8009 13.1307 12.8009 13.792C12.8009 14.4427 12.9342 15.0187 13.2009 15.52C13.4782 16.0107 13.8515 16.3947 14.3209 16.672C14.8009 16.9387 15.3395 17.072 15.9369 17.072Z" fill="#161B1B"/>
  <path d="M3.05937 13.04H20.9449V13.84H3.05937V13.04Z" fill="#161B1B"/>
</svg>
