<svg width="24" height="24" viewBox="0 0 24 24" fill="none" xmlns="http://www.w3.org/2000/svg">
<path d="M12.0001 18.096C10.5707 18.096 9.4454 17.6853 8.62406 16.864C7.80273 16.0427 7.39206 14.8267 7.39206 13.216V6.8H8.57606V13.168C8.57606 14.4907 8.87473 15.4667 9.47206 16.096C10.0694 16.7253 10.9121 17.04 12.0001 17.04C13.0987 17.04 13.9467 16.7253 14.5441 16.096C15.1414 15.4667 15.4401 14.4907 15.4401 13.168V6.8H16.5921V13.216C16.5921 14.8267 16.1814 16.0427 15.3601 16.864C14.5494 17.6853 13.4294 18.096 12.0001 18.096Z" fill="#161B1B"/>
<path d="M5.66406 20H18.3361V20.8H5.66406V20Z" fill="#161B1B"/>
</svg>
