<svg width="24" height="24" viewBox="0 0 24 24" fill="none" xmlns="http://www.w3.org/2000/svg">
<path fill-rule="evenodd" clip-rule="evenodd" d="M7.09228 9.37654L10.0953 12L9.43734 12.7531L5.43102 9.25309L5 8.87655L5.43102 8.5L9.43734 5L10.0953 5.75309L7.09228 8.37654H13.9916C15.3198 8.37655 16.5936 8.90333 17.5327 9.84101C18.4719 10.7787 18.9995 12.0505 18.9995 13.3765C18.9995 14.7026 18.4719 15.9744 17.5327 16.9121C16.5936 17.8498 15.3198 18.3765 13.9916 18.3765H6.98212V17.3765H13.9916C15.0551 17.3765 16.0747 16.9547 16.8262 16.2044C17.5776 15.4541 17.9995 14.4369 17.9995 13.3765C17.9995 12.3162 17.5776 11.2989 16.8262 10.5487C16.0747 9.79836 15.0551 9.37654 13.9916 9.37654H7.09228Z" fill="black"/>
</svg>
